<?xml version="1.0" encoding="utf-8"?>
<!-- Generator: Adobe Illustrator 14.0.0, SVG Export Plug-In . SVG Version: 6.00 Build 43363)  -->
<!DOCTYPE svg PUBLIC "-//W3C//DTD SVG 1.1//EN" "http://www.w3.org/Graphics/SVG/1.1/DTD/svg11.dtd">
<svg version="1.1" id="Capa_1" xmlns="http://www.w3.org/2000/svg" xmlns:xlink="http://www.w3.org/1999/xlink" x="0px" y="0px"
	 width="553px" height="553px" viewBox="0 0 553 553" enable-background="new 0 0 553 553" xml:space="preserve">
<linearGradient id="SVGID_1_" gradientUnits="userSpaceOnUse" x1="0.5" y1="276.5" x2="552.5" y2="276.5">
	<stop  offset="0" style="stop-color:#FFFFFF"/>
	<stop  offset="0" style="stop-color:#FFFFFF"/>
	<stop  offset="1" style="stop-color:#DFE1F0"/>
</linearGradient>
<path fill="url(#SVGID_1_)" stroke="#000000" d="M540.5,229.5h-82.914c-4.78-22.895-13.796-44.23-26.185-63.162l58.645-58.645
	c4.687-4.686,4.687-12.285,0-16.971l-36.77-36.77c-4.686-4.686-12.284-4.686-16.971,0l-58.645,58.645
	c-19.207-12.569-40.888-21.669-64.161-26.394V12.5c0-6.627-5.373-12-12-12h-52c-6.627,0-12,5.373-12,12v74.132
	c-22.515,4.832-43.507,13.758-62.162,25.966l-58.645-58.645c-4.686-4.686-12.285-4.686-16.971,0l-36.77,36.77
	c-4.686,4.686-4.686,12.284,0,16.971l58.645,58.645c-12.389,18.931-21.404,40.267-26.184,63.162H12.5c-6.627,0-12,5.373-12,12v52
	c0,6.627,5.373,12,12,12h82.915c4.78,22.895,13.795,44.229,26.184,63.161l-58.645,58.645c-4.686,4.687-4.686,12.285,0,16.971
	l36.77,36.77c4.686,4.687,12.284,4.687,16.971,0l58.645-58.645c18.655,12.208,39.646,21.135,62.162,25.967V540.5
	c0,6.628,5.373,12,12,12h52c6.627,0,12-5.372,12-12v-91.704c23.273-4.725,44.955-13.825,64.162-26.395l58.645,58.645
	c4.686,4.687,12.284,4.687,16.97,0l36.77-36.77c4.687-4.686,4.687-12.284,0-16.971l-58.645-58.645
	c12.389-18.931,21.404-40.267,26.185-63.161H540.5c6.627,0,12-5.373,12-12v-52C552.5,234.873,547.127,229.5,540.5,229.5z M281,379.5
	c-65.446,0-118.5-52.16-118.5-116.5c0-64.341,53.054-116.5,118.5-116.5c65.445,0,118.5,52.159,118.5,116.5
	C399.5,327.34,346.445,379.5,281,379.5z"/>
</svg>
